#!OML:ASF H:\Terrain\Patient Classification 1\Terrain2\Thursday\justin.ASF
:FULLY-SPECIFIED
:DEGREES
4140
root -11.4683 17.1606 -21.5646 1798.99 -34.2172 -358.909
lowerback 3.81396 0.378723 0.833245
upperback 2.64469 0.501656 2.59847
thorax 0.560155 0.230977 2.18276
lowerneck -13.1999 1.90297 -6.37281
upperneck 37.1279 4.8846 -1.5259
head 15.0852 0.805997 1.23597
rclavicle -1.26228e-014 -9.54166e-015
rhumerus -34.8746 -19.9318 -74.4223
rradius 26.2959
rwrist -14.7424
rhand -20.6389 12.9412
rfingers 7.12502
rthumb 5.72299 -16.9615
lclavicle -1.26228e-014 -9.54166e-015
lhumerus -35.7624 -0.368881 85.876
lradius 44.7744
lwrist 8.89849
lhand -16.3714 21.2244
lfingers 7.12502
lthumb 9.84181 50.9744
rfemur -18.233 9.47501 15.4404
rtibia 46.4396
rfoot -19.1662 -2.51
rtoes 3.27691
lfemur -5.68588 -2.25778 -18.5646
ltibia 22.0131
lfoot 0.0987392 -34.1466
ltoes 34.1286
4141
root -11.521 17.1577 -21.5683 1799.07 -32.6411 -358.991
lowerback 3.85202 -0.307061 -0.000739471
upperback 2.29064 -0.428479 3.4653
thorax 0.219985 -0.247293 3.5805
lowerneck -12.3021 2.4233 -7.65309
upperneck 36.9129 6.07933 -1.97972
head 14.7414 1.09613 1.43233
rclavicle -2.62396e-014 2.54444e-014
rhumerus -34.7437 -17.0704 -74.2271
rradius 25.8904
rwrist -14.8108
rhand -20.9494 13.3727
rfingers 7.12502
rthumb 5.42319 -16.5379
lclavicle -2.62396e-014 2.54444e-014
lhumerus -36.7838 2.22051 86.1082
lradius 44.7565
lwrist 8.74255
lhand -15.1783 22.7421
lfingers 7.12502
lthumb 10.9928 52.4342
rfemur -17.8271 10.7939 15.1466
rtibia 45.2169
rfoot -19.7388 -0.965958
rtoes 3.98526
lfemur -5.83787 -2.77105 -18.3087
ltibia 21.9405
lfoot 1.56841 -34.8432
ltoes 35.8299
4142
root -11.5725 17.154 -21.5659 1798.99 -31.2907 -358.977
lowerback 3.98354 -0.194652 -0.00827343
upperback 2.2479 -0.273274 3.41769
thorax 0.0925932 -0.167153 3.53075
lowerneck -12.5082 2.18831 -7.39477
upperneck 37.1299 5.78831 -2.16682
head 14.9215 0.973792 1.27456
rclavicle 3.71727e-014 1.59028e-014
rhumerus -34.959 -18.0794 -73.73
rradius 25.2614
rwrist -13.1308
rhand -20.6211 14.6475
rfingers 7.12502
rthumb 5.74017 -15.2548
lclavicle 3.71727e-014 1.59028e-014
lhumerus -36.6016 1.85176 86.0013
lradius 44.4116
lwrist 9.18638
lhand -18.3149 21.9895
lfingers 7.12502
lthumb 7.96638 51.8193
rfemur -17.2876 12.0063 14.7454
rtibia 43.9147
rfoot -20.3427 0.708223
rtoes 1.98424
lfemur -5.90451 -3.36681 -18.2054
ltibia 22.1207
lfoot 2.15961 -35.329
ltoes 37.1657
4143
root -11.6275 17.1494 -21.5668 1799.11 -30.0723 -359.31
lowerback 4.00501 0.192244 0.623245
upperback 2.46037 0.257744 3.12847
thorax 0.269537 0.104656 2.85478
lowerneck -13.2369 1.79883 -6.59557
upperneck 37.316 5.14651 -2.26752
head 15.221 0.790562 1.01223
rclavicle -2.68359e-015 -8.74653e-015
rhumerus -34.9715 -19.3891 -74.0269
rradius 25.3686
rwrist -12.8927
rhand -22.055 14.0101
rfingers 7.12502
rthumb 4.35567 -15.9251
lclavicle -2.68359e-015 -8.74653e-015
lhumerus -35.6833 0.626134 85.6442
lradius 43.9645
lwrist 9.69276
lhand -17.5718 22.868
lfingers 7.12502
lthumb 8.68358 52.6694
rfemur -16.8091 13.4597 14.6933
rtibia 42.5516
rfoot -20.6753 2.49722
rtoes 1.76665
lfemur -6.04596 -3.54681 -17.688
ltibia 22.3561
lfoot 2.91968 -36.1135
ltoes 37.9762
4144
root -11.6821 17.1403 -21.5741 1799.38 -28.771 -359.924
lowerback 4.12233 0.400393 1.29976
upperback 2.55387 0.557087 3.1169
thorax 0.29325 0.261115 2.45061
lowerneck -13.4387 1.54786 -6.34332
upperneck 37.1609 4.73695 -2.25697
head 15.2056 0.670171 0.913148
rclavicle -1.14301e-014 4.77083e-015
rhumerus -35.0678 -20.8312 -73.6276
rradius 24.9993
rwrist -10.9627
rhand -21.6316 14.7205
rfingers 7.12502
rthumb 4.76448 -15.2059
lclavicle -1.14301e-014 4.77083e-015
lhumerus -35.2049 0.427764 85.2684
lradius 43.6316
lwrist 9.73636
lhand -17.5665 23.6258
lfingers 7.12502
lthumb 8.68873 53.4269
rfemur -16.3639 15.0365 14.9477
rtibia 41.1591
rfoot -20.9871 4.23634
rtoes 1.97661
lfemur -6.27783 -3.5891 -16.8395
ltibia 22.5904
lfoot 3.64477 -37.195
ltoes 37.5729
